HIERARCHY
ROOT Hips
{
	OFFSET 45.888302 -7.645636 96.561798
	CHANNELS 6 Xposition Yposition Zposition Xrotation Yrotation Zrotation
	JOINT spine
	{
		OFFSET 0.000000 -0.458069 7.965683
		CHANNELS 3 Xrotation Yrotation Zrotation
		JOINT spine1
		{
			OFFSET 0.000000 -0.000002 10.243103
			CHANNELS 3 Xrotation Yrotation Zrotation
			JOINT spine2
			{
				OFFSET 0.000000 -0.000001 9.814751
				CHANNELS 3 Xrotation Yrotation Zrotation
				JOINT Neck
				{
					OFFSET 0.000000 -1.201385 25.198601
					CHANNELS 3 Xrotation Yrotation Zrotation
					JOINT Head
					{
						OFFSET 0.000000 -0.000001 7.613144
						CHANNELS 3 Xrotation Yrotation Zrotation
						End Site
						{
							OFFSET 0.000000 6.077327 18.428101
						}
					}
				}
				JOINT RightShoulder
				{
					OFFSET -4.132702 0.575449 10.599205
					CHANNELS 3 Xrotation Yrotation Zrotation
					JOINT RightArm
					{
						OFFSET 0.000000 -0.000002 13.901794
						CHANNELS 3 Xrotation Yrotation Zrotation
						JOINT RightArmRoll
						{
							OFFSET 0.000000 -0.000001 7.017883
							CHANNELS 3 Xrotation Yrotation Zrotation
							JOINT RightForeArm
							{
								OFFSET 0.000000 -0.000003 20.440598
								CHANNELS 3 Xrotation Yrotation Zrotation
								JOINT RightForeArmRoll
								{
									OFFSET 0.000000 -0.000001 7.875168
									CHANNELS 3 Xrotation Yrotation Zrotation
									JOINT RightHand
									{
										OFFSET 0.000000 -0.000002 15.803696
										CHANNELS 3 Xrotation Yrotation Zrotation
										End Site
										{
											OFFSET 0.000000 0.000000 0.100006
										}
									}
								}
							}
						}
					}
				}
				JOINT LeftShoulder
				{
					OFFSET 4.132702 0.575449 10.599205
					CHANNELS 3 Xrotation Yrotation Zrotation
					JOINT LeftArm
					{
						OFFSET 0.000000 -0.000002 13.901794
						CHANNELS 3 Xrotation Yrotation Zrotation
						JOINT LeftArmRoll
						{
							OFFSET 0.000000 -0.000001 7.017883
							CHANNELS 3 Xrotation Yrotation Zrotation
							JOINT LeftForeArm
							{
								OFFSET 0.000000 -0.000003 20.440598
								CHANNELS 3 Xrotation Yrotation Zrotation
								JOINT LeftForeArmRoll
								{
									OFFSET 0.000000 -0.000001 7.875153
									CHANNELS 3 Xrotation Yrotation Zrotation
									JOINT LeftHand
									{
										OFFSET 0.000000 -0.000002 15.803696
										CHANNELS 3 Xrotation Yrotation Zrotation
										End Site
										{
											OFFSET 0.000000 0.000000 0.100006
										}
									}
								}
							}
						}
					}
				}
			}
		}
	}
	JOINT RightUpLeg
	{
		OFFSET -7.060482 1.086100 -1.294701
		CHANNELS 3 Xrotation Yrotation Zrotation
		JOINT RightUpLegRoll
		{
			OFFSET 0.000000 -0.000003 18.530800
			CHANNELS 3 Xrotation Yrotation Zrotation
			JOINT RightLeg
			{
				OFFSET 0.000000 0.000004 -22.947601
				CHANNELS 3 Xrotation Yrotation Zrotation
				JOINT RightLegRoll
				{
					OFFSET 0.000000 -0.000004 23.022598
					CHANNELS 3 Xrotation Yrotation Zrotation
					JOINT RightFoot
					{
						OFFSET 0.000000 -0.000003 19.162506
						CHANNELS 3 Xrotation Yrotation Zrotation
						JOINT RightToeBase
						{
							OFFSET 0.000000 -0.000003 16.018799
							CHANNELS 3 Xrotation Yrotation Zrotation
							End Site
							{
								OFFSET 0.006790 0.894205 7.757812
							}
						}
					}
				}
			}
		}
	}
	JOINT LeftUpLeg
	{
		OFFSET 7.060482 1.086100 -1.294701
		CHANNELS 3 Xrotation Yrotation Zrotation
		JOINT LeftUpLegRoll
		{
			OFFSET 0.000000 -0.000003 18.530899
			CHANNELS 3 Xrotation Yrotation Zrotation
			JOINT LeftLeg
			{
				OFFSET 0.000000 -0.000004 22.947502
				CHANNELS 3 Xrotation Yrotation Zrotation
				JOINT LeftLegRoll
				{
					OFFSET 0.000000 -0.000004 23.235504
					CHANNELS 3 Xrotation Yrotation Zrotation
					JOINT LeftFoot
					{
						OFFSET 0.000000 -0.000003 18.949600
						CHANNELS 3 Xrotation Yrotation Zrotation
						JOINT LeftToeBase
						{
							OFFSET 0.000000 -0.000003 16.018799
							CHANNELS 3 Xrotation Yrotation Zrotation
							End Site
							{
								OFFSET -0.030430 0.894205 7.757812
							}
						}
					}
				}
			}
		}
	}
}
MOTION
Frames: 11
Frame Time: 0.041667
46.036701 -15.180225 119.767990 4.363849 -1.817689 1.379506 0.332509 -0.092044 -0.221269 4.667484 -0.187502 -0.440957 6.312538 -0.192770 -0.438680 -1.128354 14.568399 -1.320892 26.119605 -13.101426 0.564046 -12.154963 -59.621800 -14.384986 -20.306079 -110.961921 -25.324509 -0.000000 -0.000001 0.000000 50.440961 -8.839314 1.976498 -0.000008 0.000003 -3.000001 -5.000220 -7.999144 0.000118 -7.994625 58.071081 9.374698 -37.811804 115.761666 55.900686 0.000003 -0.000003 -0.000002 64.516970 8.714191 -1.620424 0.000005 0.000001 2.999999 -5.000213 7.998876 -0.000130 -11.518611 -175.768648 0.766778 -179.999991 0.000005 -1.050000 167.517534 -0.175743 -0.712903 -0.000003 0.000001 0.035824 66.866753 6.944643 2.140187 25.456911 -7.358144 -0.000007 -16.940199 174.688454 -0.453731 -0.000018 -0.000004 -0.927104 -18.811237 2.891187 0.969402 -0.000003 0.000004 -0.287718 69.961129 -6.858383 -2.147922 25.456959 7.355614 -0.000001 
46.048096 -15.150229 119.547989 4.398304 -1.812152 1.332040 0.333268 -0.089883 -0.219561 4.669014 -0.183151 -0.437574 6.314065 -0.188379 -0.435349 -1.152969 14.608774 -1.306741 26.114569 -13.108970 0.570347 -12.120718 -59.568074 -14.342205 -20.305883 -110.983949 -25.316491 -0.000000 0.000001 0.000000 50.467779 -8.827008 1.971480 -0.000014 0.000003 -3.000001 -5.000218 -7.999143 0.000118 -8.021309 58.093498 9.407817 -37.814526 115.755437 55.782742 0.000003 -0.000003 -0.000001 64.463291 8.692098 -1.612056 0.000003 0.000002 3.000000 -5.000214 7.998873 -0.000132 -11.555933 -175.780970 0.752371 -179.999991 0.000005 -1.048005 167.588131 -0.186530 -0.711047 -0.000004 0.000001 0.035500 66.873925 6.944453 2.139494 25.456914 -7.358147 -0.000007 -17.013776 174.641722 -0.478335 -0.000019 -0.000004 -0.926149 -18.810811 2.912640 0.972318 -0.000003 0.000003 -0.287584 69.953356 -6.858629 -2.147146 25.456960 7.355613 0.000000 
46.052101 -15.149825 119.297989 4.430714 -1.806020 1.283496 0.334690 -0.087768 -0.218347 4.671863 -0.178905 -0.435175 6.316915 -0.184103 -0.433002 -1.183530 14.653309 -1.290440 26.111564 -13.122387 0.579684 -12.085453 -59.511520 -14.298065 -20.306062 -111.013366 -25.308296 0.000000 -0.000000 -0.000000 50.493133 -8.814056 1.966123 -0.000012 0.000003 -3.000001 -5.000214 -7.999142 0.000119 -8.062881 58.116167 9.458568 -37.832360 115.745574 55.691272 0.000003 -0.000003 -0.000002 64.411874 8.673268 -1.605349 0.000004 0.000001 3.000000 -5.000211 7.998876 -0.000130 -11.592420 -175.795231 0.738212 -179.999991 0.000005 -1.045997 167.655326 -0.196347 -0.709975 -0.000003 0.000001 0.035202 66.880673 6.944254 2.138727 25.456916 -7.358155 -0.000002 -17.086823 174.593091 -0.503520 -0.000019 -0.000005 -0.925280 -18.815479 2.933675 0.975483 -0.000004 0.000004 -0.287467 69.945816 -6.858880 -2.146455 25.456960 7.355613 -0.000000 
46.052399 -15.164427 119.077995 4.460913 -1.799177 1.233619 0.336833 -0.085716 -0.217689 4.676152 -0.174796 -0.433887 6.321213 -0.179980 -0.431763 -1.220618 14.702710 -1.271627 26.111207 -13.142787 0.592706 -12.048843 -59.451749 -14.252170 -20.309375 -111.049464 -25.302403 0.000000 0.000000 -0.000000 50.516192 -8.800414 1.960440 -0.000014 0.000003 -3.000001 -5.000216 -7.999144 0.000117 -8.121851 58.139028 9.529921 -37.867061 115.732597 55.629265 0.000002 -0.000004 -0.000001 64.362184 8.658353 -1.600498 0.000005 0.000000 3.000001 -5.000212 7.998874 -0.000131 -11.627877 -175.811446 0.724311 -179.999991 0.000005 -1.044003 167.718819 -0.207153 -0.709094 -0.000004 0.000001 0.034932 66.886793 6.944058 2.138100 25.456919 -7.358155 -0.000004 -17.159126 174.543544 -0.529749 -0.000019 -0.000005 -0.924499 -18.825656 2.954260 0.978931 -0.000003 0.000004 -0.287364 69.938507 -6.859204 -2.145867 25.456957 7.355615 -0.000001 
46.014297 -15.153024 118.814995 4.488159 -1.791155 1.182301 0.339959 -0.083742 -0.217767 4.682420 -0.170863 -0.434075 6.327482 -0.176049 -0.431998 -1.264979 14.756461 -1.250034 26.111429 -13.169035 0.608940 -12.011128 -59.389465 -14.204847 -20.316878 -111.094489 -25.300170 -0.000000 0.000000 0.000000 50.536696 -8.786265 1.954380 -0.000014 0.000004 -3.000001 -5.000216 -7.999144 0.000118 -8.198952 58.162100 9.622785 -37.918079 115.716327 55.596825 0.000003 -0.000003 -0.000001 64.315356 8.647081 -1.597258 0.000003 0.000002 3.000000 -5.000214 7.998877 -0.000131 -11.660095 -175.829560 0.709855 -179.999991 0.000005 -1.041995 167.782012 -0.217949 -0.707190 -0.000004 0.000001 0.034594 66.891874 6.943901 2.137346 25.456912 -7.358156 -0.000003 -17.229531 174.491116 -0.557638 -0.000019 -0.000006 -0.923831 -18.840643 2.974807 0.982694 -0.000003 0.000004 -0.287260 69.931418 -6.859568 -2.145469 25.456960 7.355613 0.000000 
46.033695 -15.121429 118.580002 4.512098 -1.781744 1.129752 0.344201 -0.081844 -0.218641 4.690910 -0.167093 -0.435868 6.335969 -0.172302 -0.433836 -1.316513 14.813164 -1.225882 26.109447 -13.199529 0.627420 -11.972960 -59.325896 -14.156863 -20.331141 -111.145599 -25.305134 0.000000 -0.000000 -0.000000 50.555622 -8.771949 1.948139 -0.000012 0.000004 -3.000001 -5.000216 -7.999144 0.000119 -8.291899 58.185296 9.734409 -37.985947 115.694621 55.593584 0.000004 -0.000004 -0.000001 64.272189 8.638553 -1.595180 0.000006 0.000003 3.000001 -5.000209 7.998871 -0.000130 -11.687055 -175.850528 0.694549 -179.999991 0.000005 -1.040998 167.847896 -0.227779 -0.706053 -0.000004 0.000001 0.034114 66.895808 6.943728 2.136663 25.456912 -7.358157 -0.000002 -17.297230 174.435791 -0.587874 -0.000018 -0.000005 -0.923288 -18.859740 2.995673 0.986800 -0.000003 0.000004 -0.287152 69.924465 -6.860000 -2.145176 25.456960 7.355613 -0.000000 
46.003300 -15.121826 118.309998 4.533162 -1.771196 1.076171 0.349403 -0.080001 -0.220194 4.701330 -0.163450 -0.439029 6.346380 -0.168696 -0.437041 -1.374539 14.872611 -1.199480 26.105823 -13.233566 0.647740 -11.934462 -59.260955 -14.108404 -20.348739 -111.203423 -25.313892 -0.000000 -0.000001 0.000000 50.573682 -8.757407 1.941677 -0.000009 0.000004 -3.000001 -5.000217 -7.999142 0.000117 -8.398558 58.208648 9.862295 -38.067062 115.668694 55.614460 0.000003 -0.000003 -0.000001 64.232554 8.632451 -1.594236 0.000006 -0.000000 3.000001 -5.000209 7.998871 -0.000131 -11.709760 -175.874366 0.678702 -179.999991 0.000005 -1.039003 167.915502 -0.236640 -0.704663 -0.000003 0.000001 0.033530 66.898786 6.943526 2.135932 25.456914 -7.358163 0.000002 -17.362843 174.377585 -0.619872 -0.000019 -0.000005 -0.922858 -18.882852 3.016718 0.991217 -0.000003 0.000004 -0.287046 69.917614 -6.860473 -2.144982 25.456959 7.355615 -0.000001 
46.024296 -15.125229 118.068993 4.551815 -1.759786 1.021778 0.355414 -0.078194 -0.222308 4.713358 -0.159892 -0.443320 6.358417 -0.165190 -0.441373 -1.438337 14.934504 -1.171154 26.100846 -13.271121 0.669762 -11.895790 -59.194702 -14.059629 -20.369803 -111.264854 -25.326861 -0.000000 -0.000000 0.000000 50.591580 -8.742573 1.934983 -0.000011 0.000004 -3.000000 -5.000217 -7.999143 0.000118 -8.516857 58.232021 10.003974 -38.158884 115.638982 55.655315 0.000003 -0.000003 -0.000001 64.196415 8.628330 -1.594014 0.000003 0.000001 2.999999 -5.000211 7.998873 -0.000131 -11.729130 -175.900129 0.662432 -179.999991 0.000005 -1.036995 167.983694 -0.245504 -0.704261 -0.000003 0.000001 0.032878 66.901136 6.943330 2.135144 25.456916 -7.358164 0.000001 -17.426943 174.317479 -0.653322 -0.000019 -0.000005 -0.922529 -18.909975 3.037787 0.995920 -0.000004 0.000004 -0.286953 69.910900 -6.860981 -2.144787 25.456959 7.355613 -0.000000 
45.994396 -15.113322 117.787003 4.568448 -1.747773 0.966786 0.362089 -0.076407 -0.224866 4.726718 -0.156382 -0.448503 6.371765 -0.161743 -0.446598 -1.507212 14.998747 -1.141230 26.094782 -13.311618 0.693057 -11.857090 -59.127042 -14.010703 -20.390924 -111.330492 -25.340654 -0.000000 -0.000001 -0.000000 50.610162 -8.727494 1.928178 -0.000013 0.000003 -3.000001 -5.000216 -7.999144 0.000118 -8.644688 58.255455 10.156964 -38.260756 115.605255 55.714389 0.000003 -0.000003 0.000001 64.163460 8.625884 -1.594461 0.000006 -0.000000 3.000000 -5.000212 7.998878 -0.000131 -11.746279 -175.926822 0.645847 -179.999991 0.000005 -1.035001 168.051381 -0.253385 -0.702620 -0.000003 0.000001 0.032194 66.902973 6.943152 2.134390 25.456911 -7.358164 0.000001 -17.490098 174.256403 -0.687911 -0.000020 -0.000005 -0.922287 -18.941306 3.058743 1.000899 -0.000003 0.000004 -0.286879 69.904111 -6.861588 -2.144615 25.456960 7.355616 -0.000000 
46.016895 -15.126228 117.533997 4.583540 -1.735405 0.911412 0.369273 -0.074620 -0.227750 4.741088 -0.152882 -0.454339 6.386134 -0.158312 -0.452475 -1.580469 15.064827 -1.110027 26.087996 -13.354749 0.717357 -11.818482 -59.057961 -13.961802 -20.411418 -111.398152 -25.354835 0.000001 0.000000 0.000000 50.630225 -8.712086 1.921265 -0.000013 0.000003 -3.000000 -5.000218 -7.999143 0.000118 -8.779929 58.278944 10.318778 -38.368844 115.568700 55.786270 0.000003 -0.000004 -0.000002 64.133632 8.624640 -1.595283 0.000003 -0.000000 2.999997 -5.000213 7.998872 -0.000129 -11.762013 -175.954470 0.629294 -179.999991 0.000005 -1.033006 168.117375 -0.262255 -0.701177 -0.000003 0.000001 0.031515 66.904695 6.942925 2.133736 25.456907 -7.358164 0.000002 -17.552843 174.193484 -0.722738 -0.000020 -0.000005 -0.922122 -18.976747 3.079446 1.006122 -0.000004 0.000004 -0.286833 69.897308 -6.862191 -2.144543 25.456959 7.355613 -0.000000 
45.980995 -15.108524 117.246002 4.597494 -1.722972 0.855872 0.376817 -0.072814 -0.230843 4.756176 -0.149351 -0.460590 6.401236 -0.154857 -0.458769 -1.657398 15.132658 -1.077883 26.080866 -13.400105 0.742366 -11.780129 -58.987447 -13.913093 -20.427906 -111.468482 -25.366045 0.000001 0.000001 0.000000 50.652498 -8.696352 1.914280 -0.000009 0.000003 -3.000001 -5.000218 -7.999144 0.000118 -8.920483 58.302440 10.486897 -38.480920 115.529863 55.867286 0.000003 -0.000005 0.000000 64.106646 8.624331 -1.596414 0.000005 0.000000 3.000000 -5.000214 7.998874 -0.000130 -11.777333 -175.983102 0.613077 -179.999991 0.000005 -1.031995 168.180772 -0.270152 -0.700532 -0.000003 0.000001 0.030878 66.906409 6.942737 2.132889 25.456914 -7.358164 -0.000008 -17.615696 174.131547 -0.758128 -0.000020 -0.000005 -0.922019 -19.016288 3.099739 1.011563 -0.000004 0.000003 -0.286824 69.890423 -6.862829 -2.144380 25.456957 7.355614 -0.000001 
